<svg width="1024" height="1024" viewBox="0 0 1024 1024" xmlns="http://www.w3.org/2000/svg">
  <defs>
    <linearGradient id="bg" x1="0" y1="0" x2="1" y2="1">
      <stop offset="0%" stop-color="#082b40"/>
      <stop offset="100%" stop-color="#04141f"/>
    </linearGradient>
    <linearGradient id="glass" x1="0" y1="0" x2="1" y2="1">
      <stop offset="0%" stop-color="#78dcff"/>
      <stop offset="100%" stop-color="#0c95d8"/>
    </linearGradient>
  </defs>
  <rect x="72" y="72" width="880" height="880" rx="220" fill="url(#bg)"/>
  <circle cx="512" cy="512" r="300" fill="none" stroke="#ff5a36" stroke-width="28" opacity="0.25"/>
  <circle cx="512" cy="512" r="246" fill="none" stroke="#ffb347" stroke-width="20" opacity="0.42"/>
  <path d="M382 662c10-118 71-253 130-253s120 135 130 253H382Z" fill="url(#glass)"/>
  <path d="M346 698h332c27 0 48 21 48 48v8H298v-8c0-27 21-48 48-48Z" fill="#ffc22f"/>
  <rect x="454" y="280" width="116" height="80" rx="28" fill="#ffc22f"/>
  <path d="M456 462c25-41 57-53 83-53 39 0 71 27 97 80-51-21-111-20-180 1Z" fill="#dff8ff" opacity="0.72"/>
</svg>
